<?xml version="1.0" encoding="utf-8"?>
<!-- Generator: Adobe Illustrator 22.1.0, SVG Export Plug-In . SVG Version: 6.00 Build 0)  -->
<svg version="1.1" id="レイヤー_1" xmlns="http://www.w3.org/2000/svg" xmlns:xlink="http://www.w3.org/1999/xlink" x="0px"
	 y="0px" width="384px" height="182px" viewBox="0 0 384 182" style="enable-background:new 0 0 384 182;" xml:space="preserve">
<style type="text/css">
	.st0{fill:#19907F;}
	.st1{fill:none;}
	.st2{fill:#FFFFFF;}
	.st3{fill:#44BBAA;}
</style>
<g>
	<g>
		<path class="st0" d="M163.81,93.015c5.246,4.461,12.171,7.797,12.171,7.797s-3.349-9.287-6.935-13.259
			c-1.894-2.098-6.907-8.289-10.095-4.133C157.358,85.499,158.426,88.436,163.81,93.015z"/>
		<path class="st0" d="M154.593,87.964c-2.481,1.454-2.558,4.811,1.163,11.5c3.625,6.517,9.435,12.567,9.435,12.567
			s0.273-10.602-1.835-15.979C162.243,93.211,159.554,85.055,154.593,87.964z"/>
		<g>
			<path class="st1" d="M18.992,98.016c0,44.228,35.854,80.082,80.082,80.082c14.78,0,28.621-4.01,40.505-10.993
				c0.214-4.605,0.333-9.179,0.357-13.72c-2.306,3.66-4.931,6.695-4.931,6.695s-1.608-9.01-0.932-16.702
				c0.649-7.383,2.551-10.026,5.378-9.684c-0.042-0.763-0.086-1.525-0.133-2.287c0-0.101,0.027-0.195,0.072-0.278
				c-0.044-0.083-0.072-0.177-0.072-0.278c0.841-13.811,0.824-27.329,0-40.573c0-0.324,0.258-0.588,0.576-0.588
				c-0.318,0-0.576-0.263-0.576-0.588c0.285-4.678,0.469-9.322,0.559-13.934c-1.739,2.447-3.254,4.199-3.254,4.199
				s-1.608-9.01-0.932-16.702c0.526-5.99,1.878-8.858,3.879-9.545c-0.073-1.534-0.156-3.064-0.251-4.591
				c0-0.101,0.027-0.195,0.072-0.278c-0.044-0.083-0.072-0.177-0.072-0.278c0.386-6.34,0.589-12.618,0.618-18.837
				c-11.964-7.113-25.935-11.202-40.863-11.202C54.846,17.934,18.992,53.788,18.992,98.016z M132.615,142.699
				c-3.634,6.495-9.459,12.524-9.459,12.524s-0.274-10.566,1.839-15.925c1.116-2.831,3.812-10.96,8.785-8.061
				C136.268,132.688,136.345,136.033,132.615,142.699z M135.398,50.525c2.487,1.45,2.564,4.795-1.166,11.461
				c-3.634,6.495-9.459,12.524-9.459,12.524s-0.274-10.566,1.839-15.925C127.729,55.755,130.425,47.626,135.398,50.525z
				 M120.908,50.116c1.899-2.091,6.924-8.261,10.12-4.119c1.598,2.071,0.527,4.999-4.871,9.562
				c-5.259,4.446-12.202,7.771-12.202,7.771S117.313,54.074,120.908,50.116z M119.291,130.829c1.899-2.091,6.924-8.261,10.12-4.119
				c1.598,2.071,0.527,4.999-4.871,9.562c-5.259,4.446-12.202,7.771-12.202,7.771S115.696,134.787,119.291,130.829z"/>
			<path class="st0" d="M126.613,58.585c-2.113,5.359-1.839,15.925-1.839,15.925s5.824-6.029,9.459-12.524
				c3.73-6.666,3.652-10.012,1.166-11.461C130.425,47.626,127.729,55.755,126.613,58.585z"/>
			<path class="st0" d="M131.028,45.997c-3.196-4.142-8.221,2.028-10.12,4.119c-3.595,3.958-6.952,13.214-6.952,13.214
				s6.942-3.325,12.202-7.771C131.556,50.996,132.626,48.068,131.028,45.997z"/>
			<path class="st0" d="M139.319,47.973c0,0.101,0.027,0.195,0.072,0.278c-0.044,0.083-0.072,0.177-0.072,0.278
				c0.095,1.526,0.178,3.057,0.251,4.591c-2.001,0.688-3.352,3.556-3.879,9.545c-0.676,7.692,0.932,16.702,0.932,16.702
				s1.515-1.753,3.254-4.199c-0.09,4.612-0.274,9.256-0.559,13.934c0,0.325,0.258,0.588,0.576,0.588
				c-0.318,0-0.576,0.263-0.576,0.588c0.824,13.244,0.841,26.762,0,40.573c0,0.101,0.027,0.195,0.072,0.278
				c-0.044,0.083-0.072,0.177-0.072,0.278c0.047,0.761,0.091,1.524,0.133,2.287c-2.827-0.341-4.729,2.301-5.378,9.684
				c-0.676,7.692,0.932,16.702,0.932,16.702s2.625-3.035,4.931-6.695c-0.025,4.541-0.144,9.114-0.357,13.72
				c3.888-2.285,7.566-4.888,10.998-7.774c-0.243-9.308-0.042-18.616,0.603-27.924c0-0.101-0.027-0.195-0.072-0.278
				c0.044-0.083,0.072-0.177,0.072-0.278c-0.407-5.882-0.637-11.764-0.69-17.646c1.576,2.183,2.879,3.699,2.879,3.699
				s1.604-9.041,0.93-16.759c-0.46-5.269-1.554-8.13-3.161-9.221c0.014-0.216,0.027-0.431,0.042-0.647
				c0-0.324-0.258-0.588-0.575-0.588c0.318,0,0.575-0.263,0.575-0.588c-0.936-13.524-0.936-27.049,0-40.573
				c0-0.101-0.027-0.195-0.072-0.278c0.044-0.083,0.072-0.177,0.072-0.278c-0.259-3.747-0.446-7.494-0.562-11.241
				c-3.339-2.811-6.91-5.354-10.681-7.596C139.908,35.355,139.705,41.632,139.319,47.973z"/>
			<path class="st2" d="M181.626,91.313c0-25.307-10.414-48.179-27.184-64.576c-4.485-4.385-9.422-8.308-14.739-11.689
				C125.715,6.154,109.117,1,91.313,1C41.435,1,1,41.435,1,91.313s40.435,90.313,90.313,90.313c17.741,0,34.283-5.122,48.239-13.96
				c3.887-2.461,7.575-5.208,11.03-8.216c1.705-1.484,3.355-3.029,4.943-4.635c-1.584,1.574-3.237,3.078-4.947,4.516
				c-3.433,2.886-7.11,5.489-10.998,7.774c-11.884,6.983-25.725,10.993-40.505,10.993c-44.228,0-80.082-35.854-80.082-80.082
				s35.854-80.082,80.082-80.082c14.928,0,28.9,4.089,40.863,11.202c3.771,2.242,7.342,4.785,10.681,7.596
				c17.448,14.69,28.538,36.69,28.538,61.284c0,17.861-5.85,34.354-15.734,47.674C174.848,130.563,181.626,111.731,181.626,91.313z"
				/>
			<path class="st0" d="M133.781,131.238c-4.974-2.899-7.669,5.23-8.785,8.061c-2.113,5.359-1.839,15.925-1.839,15.925
				s5.824-6.029,9.459-12.524C136.345,136.033,136.268,132.688,133.781,131.238z"/>
			<path class="st0" d="M129.411,126.71c-3.196-4.142-8.221,2.028-10.12,4.119c-3.595,3.958-6.952,13.214-6.952,13.214
				s6.942-3.325,12.202-7.771C129.938,131.709,131.009,128.781,129.411,126.71z"/>
			<path class="st3" d="M145.204,93.378c-8.122-8.44-17.683-16.354-28.809-23.698c-1.32-1.086-4.292-1.467-6.604-0.847
				c-0.355,0.081-0.705,0.165-1.06,0.247V37.49c1.944-0.464,3.891-0.916,5.841-1.343c3.308-1.181,6.29-6.611,6.628-12.067
				l0.409-6.613c0.338-5.455-2.092-8.952-5.4-7.771c-31.506,7.062-57.327,15.441-73.166,26.133
				c-3.308,1.181-6.29,6.611-6.628,12.067l-0.409,6.613c-0.338,5.455,2.092,8.952,5.4,7.771c2.533-1.308,5.074-2.562,7.62-3.782
				v26.577c-0.529,0.164-1.063,0.323-1.59,0.487c-1.65,0.443-2.53,1.28-2.422,2.119l0.002,4.442
				c-0.069,0.435,0.125,0.883,0.617,1.288c1.526,1.597,3.132,3.173,4.778,4.738l-5.458,41.144c-0.221,1.668,1.222,3.185,3.206,3.371
				c0.551,0.052,1.082-0.013,1.575-0.157c1.328-0.264,2.432-1.14,2.731-2.331l8.293-33.029c3.956,3.159,8.172,6.248,12.658,9.264
				l-2.221,45.104c-0.083,1.677,1.482,3.106,3.478,3.175c0.553,0.019,1.079-0.077,1.558-0.249c1.303-0.341,2.331-1.28,2.531-2.485
				l7.488-45.214c6.394-1.501,12.709-3.045,18.921-4.646l2.343,13.241c0.213,1.204,1.252,2.135,2.559,2.465
				c0.482,0.168,1.008,0.26,1.561,0.236c1.994-0.085,3.543-1.526,3.442-3.202l-0.913-15.116c3.489-0.94,6.941-1.901,10.369-2.875
				l9.931,38.746c0.305,1.19,1.413,2.062,2.742,2.322c0.494,0.142,1.026,0.205,1.576,0.151c1.984-0.193,3.419-1.715,3.189-3.382
				l-5.684-41.27c2.386-0.72,4.759-1.448,7.113-2.185c2.312-0.62,3.251-2.179,3.251-3.535c0-0.623,0-1.356,0-1.356
				S146.498,94.442,145.204,93.378z M61.935,52.701c11.178-4.692,22.478-8.616,33.887-11.851v31.293
				c-11.53,2.826-22.828,5.842-33.887,9.056V52.701z"/>
		</g>
	</g>
	<g>
		<path class="st3" d="M204.062,107.396l10.376,36.142c1.465,5.085,2.726,8.536,3.785,10.352c0.768,1.292,1.58,1.937,2.436,1.937
			v2.24h-15.357v-2.24c0.971-0.242,1.599-0.666,1.882-1.271c0.283-0.605,0.424-1.352,0.424-2.24c0-1.695-0.667-4.883-2.001-9.565
			l-6.765-23.671l-1.088,2.543v22.399c0,4.279,0.087,6.942,0.261,7.991c0.174,1.05,0.507,1.948,1.001,2.694
			c0.493,0.748,1.283,1.12,2.371,1.12v2.24h-14.879v-2.24h0.979c0.855,0,1.544-0.424,2.066-1.271
			c0.377-0.565,0.667-1.533,0.87-2.906c0.159-0.969,0.239-3.511,0.239-7.628V90.022c0-4.197-0.08-6.82-0.239-7.87
			c-0.16-1.049-0.482-1.968-0.968-2.755c-0.486-0.787-1.142-1.181-1.969-1.181h-0.979v-2.24h14.683v2.24
			c-1.001,0-1.762,0.404-2.284,1.211c-0.377,0.566-0.674,1.513-0.892,2.845c-0.174,1.009-0.261,3.593-0.261,7.749v25.547
			l10.942-24.639c1.523-3.43,2.284-6.175,2.284-8.233c0-1.533-0.312-2.744-0.935-3.632c-0.319-0.444-1.109-0.726-2.371-0.848v-2.24
			h11.507v2.24c-1.03,0.203-1.838,0.717-2.425,1.544c-0.587,0.828-1.94,3.623-4.057,8.385L204.062,107.396z"/>
		<path class="st3" d="M238.693,134.699h-10.42l-1.24,7.991c-0.406,2.664-0.609,4.864-0.609,6.599c0,2.3,0.333,3.996,1.001,5.085
			c0.392,0.646,1.356,1.13,2.893,1.453v2.24h-9.81v-2.24c1.058-0.444,1.928-1.665,2.61-3.663c0.681-1.998,1.523-6.124,2.523-12.38
			l10.55-65.503h0.413l10.637,67.319c1.015,6.378,1.849,10.393,2.502,12.047c0.493,1.252,1.189,1.978,2.088,2.179v2.24h-14.27v-2.24
			h0.587c1.145,0,1.95-0.444,2.415-1.332c0.319-0.645,0.479-1.574,0.479-2.785c0-0.726-0.044-1.473-0.131-2.24
			c-0.029-0.363-0.247-1.877-0.653-4.54L238.693,134.699z M237.953,130.219l-4.394-28.272l-4.525,28.272H237.953z"/>
		<path class="st3" d="M283.068,74.1v28.938h-0.805c-0.972-7.91-2.429-13.924-4.372-18.041c-1.944-4.117-4.068-6.175-6.374-6.175
			c-2.205,0-4.039,1.725-5.503,5.176c-1.465,3.451-2.502,8.264-3.111,14.439c-0.609,6.175-0.914,12.512-0.914,19.009
			c0,7.87,0.333,14.771,1.001,20.704c0.667,5.933,1.744,10.292,3.23,13.076c1.486,2.785,3.252,4.177,5.297,4.177
			c0.71,0,1.439-0.212,2.186-0.636c0.747-0.424,1.512-1.038,2.295-1.846V135.85c0-3.228-0.08-5.317-0.239-6.266
			c-0.16-0.948-0.489-1.806-0.99-2.573c-0.5-0.766-1.106-1.15-1.816-1.15h-0.761v-2.24h14.335v2.24
			c-1.088,0.203-1.846,0.616-2.273,1.241c-0.428,0.626-0.758,1.665-0.99,3.118c-0.131,0.767-0.196,2.644-0.196,5.63v17.072
			c-1.885,2.341-3.847,4.107-5.884,5.297c-2.038,1.19-4.151,1.786-6.341,1.786c-2.799,0-5.123-1.059-6.972-3.178
			c-1.849-2.119-3.48-4.904-4.894-8.354c-1.414-3.451-2.52-7.334-3.317-11.654c-1.015-5.57-1.523-11.805-1.523-18.707
			c0-12.35,1.559-22.782,4.677-31.299c3.118-8.515,7.04-12.774,11.768-12.774c1.465,0,2.784,0.324,3.959,0.969
			c0.638,0.324,1.671,1.241,3.1,2.755c1.428,1.513,2.273,2.27,2.534,2.27c0.406,0,0.783-0.413,1.131-1.241
			c0.348-0.826,0.667-2.391,0.957-4.692H283.068z"/>
		<path class="st3" d="M288.028,75.977h15.227v2.24h-0.761c-1.146,0-1.933,0.333-2.36,0.999c-0.428,0.666-0.733,1.585-0.914,2.755
			c-0.182,1.171-0.272,4.097-0.272,8.778v40.198c0,7.346,0.199,12.209,0.598,14.59c0.399,2.382,1.055,4.359,1.969,5.933
			s2.066,2.361,3.459,2.361c1.595,0,2.955-0.999,4.079-2.997c1.124-1.998,1.965-4.752,2.523-8.264
			c0.558-3.511,0.837-9.626,0.837-18.343V90.748c0-3.672-0.138-6.296-0.413-7.87c-0.276-1.574-0.624-2.664-1.044-3.269
			c-0.653-0.928-1.574-1.392-2.763-1.392v-2.24h10.202v2.24h-0.609c-0.827,0-1.516,0.465-2.067,1.392
			c-0.551,0.929-0.95,2.322-1.196,4.177c-0.189,1.292-0.283,3.613-0.283,6.962v31.178c0,9.647-0.228,16.609-0.685,20.886
			c-0.457,4.279-1.57,8.214-3.339,11.805c-1.77,3.592-4.184,5.388-7.244,5.388c-2.553,0-4.525-0.949-5.917-2.845
			c-1.9-2.582-3.241-5.892-4.024-9.928c-0.783-4.035-1.175-9.464-1.175-16.285V90.748c0-4.722-0.095-7.658-0.283-8.808
			c-0.189-1.15-0.515-2.068-0.979-2.755c-0.464-0.686-1.32-1.008-2.567-0.969V75.977z"/>
		<path class="st3" d="M350.828,75.977v2.24c-0.972,0.363-1.718,1.15-2.241,2.361c-0.725,1.695-1.871,6.317-3.437,13.863
			l-6.395,29.725v19.857c0,4.238,0.079,6.871,0.239,7.9c0.159,1.029,0.475,1.937,0.946,2.724c0.471,0.787,1.099,1.18,1.882,1.18
			h1.653v2.24h-16.554v-2.24h1.544c0.87,0,1.559-0.424,2.067-1.271c0.377-0.565,0.674-1.533,0.892-2.906
			c0.159-0.969,0.239-3.511,0.239-7.628v-16.467l-6.939-35.173c-1.378-6.941-2.349-11.027-2.915-12.259
			c-0.566-1.231-1.32-1.866-2.262-1.907v-2.24h14.139v2.24h-0.631c-0.856,0-1.454,0.343-1.795,1.029
			c-0.341,0.687-0.511,1.413-0.511,2.179c0,1.453,0.58,5.106,1.74,10.958l5.329,27.182l5.308-24.76
			c1.319-6.054,1.979-10.069,1.979-12.047c0-1.09-0.189-1.998-0.566-2.724c-0.493-1.008-1.4-1.613-2.719-1.816v-2.24H350.828z"/>
		<path class="st3" d="M369.861,134.699h-10.42l-1.24,7.991c-0.406,2.664-0.609,4.864-0.609,6.599c0,2.3,0.333,3.996,1.001,5.085
			c0.392,0.646,1.356,1.13,2.893,1.453v2.24h-9.81v-2.24c1.058-0.444,1.928-1.665,2.61-3.663c0.681-1.998,1.523-6.124,2.523-12.38
			l10.55-65.503h0.413l10.637,67.319c1.015,6.378,1.849,10.393,2.502,12.047c0.493,1.252,1.189,1.978,2.088,2.179v2.24h-14.27v-2.24
			h0.587c1.145,0,1.95-0.444,2.415-1.332c0.319-0.645,0.479-1.574,0.479-2.785c0-0.726-0.043-1.473-0.131-2.24
			c-0.029-0.363-0.247-1.877-0.653-4.54L369.861,134.699z M369.122,130.219l-4.394-28.272l-4.525,28.272H369.122z"/>
	</g>
</g>
</svg>
