<svg id="レイヤー_1" xmlns="http://www.w3.org/2000/svg" width="384" height="182"><style>.st0{fill:#19907f}.st3{fill:#4ba}</style><path class="st0" d="M163.81 93.015c5.246 4.461 12.171 7.797 12.171 7.797s-3.349-9.287-6.935-13.259c-1.894-2.098-6.907-8.289-10.095-4.133-1.593 2.079-.525 5.016 4.859 9.595z"/><path class="st0" d="M154.593 87.964c-2.481 1.454-2.558 4.811 1.163 11.5 3.625 6.517 9.435 12.567 9.435 12.567s.273-10.602-1.835-15.979c-1.113-2.841-3.802-10.997-8.763-8.088z"/><path d="M18.992 98.016c0 44.228 35.854 80.082 80.082 80.082 14.78 0 28.621-4.01 40.505-10.993.214-4.605.333-9.179.357-13.72-2.306 3.66-4.931 6.695-4.931 6.695s-1.608-9.01-.932-16.702c.649-7.383 2.551-10.026 5.378-9.684-.042-.763-.086-1.525-.133-2.287a.58.58 0 0 1 .072-.278.592.592 0 0 1-.072-.278c.841-13.811.824-27.329 0-40.573 0-.324.258-.588.576-.588a.582.582 0 0 1-.576-.588c.285-4.678.469-9.322.559-13.934-1.739 2.447-3.254 4.199-3.254 4.199s-1.608-9.01-.932-16.702c.526-5.99 1.878-8.858 3.879-9.545a315.305 315.305 0 0 0-.251-4.591.58.58 0 0 1 .072-.278.592.592 0 0 1-.072-.278c.386-6.34.589-12.618.618-18.837-11.964-7.113-25.935-11.202-40.863-11.202-44.228 0-80.082 35.854-80.082 80.082zm113.623 44.683c-3.634 6.495-9.459 12.524-9.459 12.524s-.274-10.566 1.839-15.925c1.116-2.831 3.812-10.96 8.785-8.061 2.488 1.451 2.565 4.796-1.165 11.462zm2.783-92.174c2.487 1.45 2.564 4.795-1.166 11.461-3.634 6.495-9.459 12.524-9.459 12.524s-.274-10.566 1.839-15.925c1.117-2.83 3.813-10.959 8.786-8.06zm-14.49-.409c1.899-2.091 6.924-8.261 10.12-4.119 1.598 2.071.527 4.999-4.871 9.562-5.259 4.446-12.202 7.771-12.202 7.771s3.358-9.256 6.953-13.214zm-1.617 80.713c1.899-2.091 6.924-8.261 10.12-4.119 1.598 2.071.527 4.999-4.871 9.562-5.259 4.446-12.202 7.771-12.202 7.771s3.358-9.256 6.953-13.214z" fill="none"/><path class="st0" d="M126.613 58.585c-2.113 5.359-1.839 15.925-1.839 15.925s5.824-6.029 9.459-12.524c3.73-6.666 3.652-10.012 1.166-11.461-4.974-2.899-7.67 5.23-8.786 8.06z"/><path class="st0" d="M131.028 45.997c-3.196-4.142-8.221 2.028-10.12 4.119-3.595 3.958-6.952 13.214-6.952 13.214s6.942-3.325 12.202-7.771c5.398-4.563 6.468-7.491 4.87-9.562zM139.319 47.973a.58.58 0 0 0 .072.278.592.592 0 0 0-.072.278c.095 1.526.178 3.057.251 4.591-2.001.688-3.352 3.556-3.879 9.545-.676 7.692.932 16.702.932 16.702s1.515-1.753 3.254-4.199c-.09 4.612-.274 9.256-.559 13.934 0 .325.258.588.576.588a.582.582 0 0 0-.576.588c.824 13.244.841 26.762 0 40.573a.58.58 0 0 0 .072.278.592.592 0 0 0-.072.278c.047.761.091 1.524.133 2.287-2.827-.341-4.729 2.301-5.378 9.684-.676 7.692.932 16.702.932 16.702s2.625-3.035 4.931-6.695a337.158 337.158 0 0 1-.357 13.72 80.334 80.334 0 0 0 10.998-7.774 293.07 293.07 0 0 1 .603-27.924.58.58 0 0 0-.072-.278.592.592 0 0 0 .072-.278 293.942 293.942 0 0 1-.69-17.646c1.576 2.183 2.879 3.699 2.879 3.699s1.604-9.041.93-16.759c-.46-5.269-1.554-8.13-3.161-9.221l.042-.647a.582.582 0 0 0-.575-.588.581.581 0 0 0 .575-.588 293.472 293.472 0 0 1 0-40.573.58.58 0 0 0-.072-.278.592.592 0 0 0 .072-.278 295.677 295.677 0 0 1-.562-11.241 80.324 80.324 0 0 0-10.681-7.596 335.668 335.668 0 0 1-.618 18.838z"/><path d="M181.626 91.313c0-25.307-10.414-48.179-27.184-64.576a90.728 90.728 0 0 0-14.739-11.689C125.715 6.154 109.117 1 91.313 1 41.435 1 1 41.435 1 91.313s40.435 90.313 90.313 90.313c17.741 0 34.283-5.122 48.239-13.96a90.63 90.63 0 0 0 15.973-12.851 80.705 80.705 0 0 1-4.947 4.516 80.395 80.395 0 0 1-10.998 7.774c-11.884 6.983-25.725 10.993-40.505 10.993-44.228 0-80.082-35.854-80.082-80.082s35.854-80.082 80.082-80.082c14.928 0 28.9 4.089 40.863 11.202a80.324 80.324 0 0 1 10.681 7.596c17.448 14.69 28.538 36.69 28.538 61.284 0 17.861-5.85 34.354-15.734 47.674 11.425-15.127 18.203-33.959 18.203-54.377z" fill="#fff"/><path class="st0" d="M133.781 131.238c-4.974-2.899-7.669 5.23-8.785 8.061-2.113 5.359-1.839 15.925-1.839 15.925s5.824-6.029 9.459-12.524c3.729-6.667 3.652-10.012 1.165-11.462z"/><path class="st0" d="M129.411 126.71c-3.196-4.142-8.221 2.028-10.12 4.119-3.595 3.958-6.952 13.214-6.952 13.214s6.942-3.325 12.202-7.771c5.397-4.563 6.468-7.491 4.87-9.562z"/><path class="st3" d="M145.204 93.378c-8.122-8.44-17.683-16.354-28.809-23.698-1.32-1.086-4.292-1.467-6.604-.847-.355.081-.705.165-1.06.247V37.49c1.944-.464 3.891-.916 5.841-1.343 3.308-1.181 6.29-6.611 6.628-12.067l.409-6.613c.338-5.455-2.092-8.952-5.4-7.771-31.506 7.062-57.327 15.441-73.166 26.133-3.308 1.181-6.29 6.611-6.628 12.067l-.409 6.613c-.338 5.455 2.092 8.952 5.4 7.771a285.136 285.136 0 0 1 7.62-3.782v26.577c-.529.164-1.063.323-1.59.487-1.65.443-2.53 1.28-2.422 2.119l.002 4.442c-.069.435.125.883.617 1.288a140.78 140.78 0 0 0 4.778 4.738l-5.458 41.144c-.221 1.668 1.222 3.185 3.206 3.371a4.195 4.195 0 0 0 1.575-.157c1.328-.264 2.432-1.14 2.731-2.331l8.293-33.029a191.47 191.47 0 0 0 12.658 9.264l-2.221 45.104c-.083 1.677 1.482 3.106 3.478 3.175a4.179 4.179 0 0 0 1.558-.249c1.303-.341 2.331-1.28 2.531-2.485l7.488-45.214a900.464 900.464 0 0 0 18.921-4.646l2.343 13.241c.213 1.204 1.252 2.135 2.559 2.465a4.18 4.18 0 0 0 1.561.236c1.994-.085 3.543-1.526 3.442-3.202l-.913-15.116a786.63 786.63 0 0 0 10.369-2.875l9.931 38.746c.305 1.19 1.413 2.062 2.742 2.322a4.205 4.205 0 0 0 1.576.151c1.984-.193 3.419-1.715 3.189-3.382l-5.684-41.27c2.386-.72 4.759-1.448 7.113-2.185 2.312-.62 3.251-2.179 3.251-3.535v-1.356s-.152-1.894-1.446-2.958zM61.935 52.701A296.211 296.211 0 0 1 95.822 40.85v31.293a826.14 826.14 0 0 0-33.887 9.056V52.701z"/><g><path class="st3" d="M204.062 107.396l10.376 36.142c1.465 5.085 2.726 8.536 3.785 10.352.768 1.292 1.58 1.937 2.436 1.937v2.24h-15.357v-2.24c.971-.242 1.599-.666 1.882-1.271.283-.605.424-1.352.424-2.24 0-1.695-.667-4.883-2.001-9.565l-6.765-23.671-1.088 2.543v22.399c0 4.279.087 6.942.261 7.991.174 1.05.507 1.948 1.001 2.694.493.748 1.283 1.12 2.371 1.12v2.24h-14.879v-2.24h.979c.855 0 1.544-.424 2.066-1.271.377-.565.667-1.533.87-2.906.159-.969.239-3.511.239-7.628v-54c0-4.197-.08-6.82-.239-7.87-.16-1.049-.482-1.968-.968-2.755-.486-.787-1.142-1.181-1.969-1.181h-.979v-2.24h14.683v2.24c-1.001 0-1.762.404-2.284 1.211-.377.566-.674 1.513-.892 2.845-.174 1.009-.261 3.593-.261 7.749v25.547l10.942-24.639c1.523-3.43 2.284-6.175 2.284-8.233 0-1.533-.312-2.744-.935-3.632-.319-.444-1.109-.726-2.371-.848v-2.24h11.507v2.24c-1.03.203-1.838.717-2.425 1.544-.587.828-1.94 3.623-4.057 8.385l-8.636 19.251z"/><path class="st3" d="M238.693 134.699h-10.42l-1.24 7.991c-.406 2.664-.609 4.864-.609 6.599 0 2.3.333 3.996 1.001 5.085.392.646 1.356 1.13 2.893 1.453v2.24h-9.81v-2.24c1.058-.444 1.928-1.665 2.61-3.663.681-1.998 1.523-6.124 2.523-12.38l10.55-65.503h.413l10.637 67.319c1.015 6.378 1.849 10.393 2.502 12.047.493 1.252 1.189 1.978 2.088 2.179v2.24h-14.27v-2.24h.587c1.145 0 1.95-.444 2.415-1.332.319-.645.479-1.574.479-2.785 0-.726-.044-1.473-.131-2.24-.029-.363-.247-1.877-.653-4.54l-1.565-10.23zm-.74-4.48l-4.394-28.272-4.525 28.272h8.919zM283.068 74.1v28.938h-.805c-.972-7.91-2.429-13.924-4.372-18.041-1.944-4.117-4.068-6.175-6.374-6.175-2.205 0-4.039 1.725-5.503 5.176-1.465 3.451-2.502 8.264-3.111 14.439a193.636 193.636 0 0 0-.914 19.009c0 7.87.333 14.771 1.001 20.704.667 5.933 1.744 10.292 3.23 13.076 1.486 2.785 3.252 4.177 5.297 4.177.71 0 1.439-.212 2.186-.636.747-.424 1.512-1.038 2.295-1.846V135.85c0-3.228-.08-5.317-.239-6.266a6.681 6.681 0 0 0-.99-2.573c-.5-.766-1.106-1.15-1.816-1.15h-.761v-2.24h14.335v2.24c-1.088.203-1.846.616-2.273 1.241-.428.626-.758 1.665-.99 3.118-.131.767-.196 2.644-.196 5.63v17.072c-1.885 2.341-3.847 4.107-5.884 5.297-2.038 1.19-4.151 1.786-6.341 1.786-2.799 0-5.123-1.059-6.972-3.178-1.849-2.119-3.48-4.904-4.894-8.354-1.414-3.451-2.52-7.334-3.317-11.654-1.015-5.57-1.523-11.805-1.523-18.707 0-12.35 1.559-22.782 4.677-31.299 3.118-8.515 7.04-12.774 11.768-12.774 1.465 0 2.784.324 3.959.969.638.324 1.671 1.241 3.1 2.755 1.428 1.513 2.273 2.27 2.534 2.27.406 0 .783-.413 1.131-1.241.348-.826.667-2.391.957-4.692h.805zM288.028 75.977h15.227v2.24h-.761c-1.146 0-1.933.333-2.36.999-.428.666-.733 1.585-.914 2.755-.182 1.171-.272 4.097-.272 8.778v40.198c0 7.346.199 12.209.598 14.59.399 2.382 1.055 4.359 1.969 5.933s2.066 2.361 3.459 2.361c1.595 0 2.955-.999 4.079-2.997 1.124-1.998 1.965-4.752 2.523-8.264.558-3.511.837-9.626.837-18.343V90.748c0-3.672-.138-6.296-.413-7.87-.276-1.574-.624-2.664-1.044-3.269-.653-.928-1.574-1.392-2.763-1.392v-2.24h10.202v2.24h-.609c-.827 0-1.516.465-2.067 1.392-.551.929-.95 2.322-1.196 4.177-.189 1.292-.283 3.613-.283 6.962v31.178c0 9.647-.228 16.609-.685 20.886-.457 4.279-1.57 8.214-3.339 11.805-1.77 3.592-4.184 5.388-7.244 5.388-2.553 0-4.525-.949-5.917-2.845-1.9-2.582-3.241-5.892-4.024-9.928-.783-4.035-1.175-9.464-1.175-16.285V90.748c0-4.722-.095-7.658-.283-8.808-.189-1.15-.515-2.068-.979-2.755-.464-.686-1.32-1.008-2.567-.969v-2.239zM350.828 75.977v2.24c-.972.363-1.718 1.15-2.241 2.361-.725 1.695-1.871 6.317-3.437 13.863l-6.395 29.725v19.857c0 4.238.079 6.871.239 7.9.159 1.029.475 1.937.946 2.724.471.787 1.099 1.18 1.882 1.18h1.653v2.24h-16.554v-2.24h1.544c.87 0 1.559-.424 2.067-1.271.377-.565.674-1.533.892-2.906.159-.969.239-3.511.239-7.628v-16.467l-6.939-35.173c-1.378-6.941-2.349-11.027-2.915-12.259-.566-1.231-1.32-1.866-2.262-1.907v-2.24h14.139v2.24h-.631c-.856 0-1.454.343-1.795 1.029a4.836 4.836 0 0 0-.511 2.179c0 1.453.58 5.106 1.74 10.958l5.329 27.182 5.308-24.76c1.319-6.054 1.979-10.069 1.979-12.047 0-1.09-.189-1.998-.566-2.724-.493-1.008-1.4-1.613-2.719-1.816v-2.24h9.008zM369.861 134.699h-10.42l-1.24 7.991c-.406 2.664-.609 4.864-.609 6.599 0 2.3.333 3.996 1.001 5.085.392.646 1.356 1.13 2.893 1.453v2.24h-9.81v-2.24c1.058-.444 1.928-1.665 2.61-3.663.681-1.998 1.523-6.124 2.523-12.38l10.55-65.503h.413l10.637 67.319c1.015 6.378 1.849 10.393 2.502 12.047.493 1.252 1.189 1.978 2.088 2.179v2.24h-14.27v-2.24h.587c1.145 0 1.95-.444 2.415-1.332.319-.645.479-1.574.479-2.785 0-.726-.043-1.473-.131-2.24-.029-.363-.247-1.877-.653-4.54l-1.565-10.23zm-.739-4.48l-4.394-28.272-4.525 28.272h8.919z"/></g></svg>