<?xml version="1.0" encoding="utf-8"?>
<!-- Generator: Adobe Illustrator 22.1.0, SVG Export Plug-In . SVG Version: 6.00 Build 0)  -->
<svg version="1.1" id="レイヤー_1" xmlns="http://www.w3.org/2000/svg" xmlns:xlink="http://www.w3.org/1999/xlink" x="0px"
	 y="0px" width="256px" height="256px" viewBox="0 0 256 256" style="enable-background:new 0 0 256 256;" xml:space="preserve">
<style type="text/css">
	.st0{fill:#FFFFFF;}
	.st1{fill:#44BBAA;}
	.st2{fill:#118877;}
</style>
<g>
	<path class="st0" d="M255,128c0-35.587-14.644-67.75-38.227-90.807c-6.307-6.166-13.249-11.683-20.726-16.437
		C176.377,8.248,153.036,1,128,1C57.86,1,1,57.86,1,128s56.86,127,127,127c24.948,0,48.209-7.203,67.835-19.631
		c5.465-3.461,10.651-7.323,15.51-11.553c2.397-2.087,4.717-4.26,6.951-6.518c-2.227,2.213-4.551,4.328-6.956,6.351
		c-4.827,4.059-9.999,7.719-15.466,10.932c-16.711,9.82-36.175,15.459-56.959,15.459c-62.195,0-112.613-50.419-112.613-112.613
		S76.719,24.813,138.914,24.813c20.993,0,40.639,5.751,57.463,15.753c5.303,3.153,10.325,6.729,15.02,10.682
		c24.535,20.658,40.13,51.595,40.13,86.179c0,25.116-8.226,48.31-22.126,67.04C245.468,183.194,255,156.712,255,128z"/>
	<g>
		<path class="st0" d="M177.64,81.978c-2.971,7.536-2.586,22.394-2.586,22.394s8.19-8.479,13.301-17.612
			c5.245-9.374,5.136-14.079,1.639-16.117C182.999,66.566,179.209,77.997,177.64,81.978z"/>
		<path class="st0" d="M183.848,64.276c-4.494-5.825-11.56,2.852-14.231,5.792c-5.056,5.566-9.777,18.582-9.777,18.582
			s9.762-4.676,17.158-10.928C184.59,71.305,186.095,67.188,183.848,64.276z"/>
		<path class="st0" d="M229.947,130.393c7.377,6.273,17.115,10.964,17.115,10.964s-4.709-13.06-9.752-18.645
			c-2.664-2.95-9.713-11.656-14.196-5.811C220.873,119.823,222.375,123.954,229.947,130.393z"/>
		<path class="st0" d="M195.507,67.054c0,0.142,0.039,0.274,0.101,0.391c-0.062,0.117-0.101,0.249-0.101,0.391
			c0.133,2.146,0.25,4.299,0.353,6.455c-2.814,0.967-4.714,5-5.454,13.423c-0.951,10.817,1.311,23.487,1.311,23.487
			s2.131-2.465,4.576-5.905c-0.126,6.485-0.385,13.016-0.786,19.594c0,0.456,0.362,0.826,0.809,0.826
			c-0.447,0-0.809,0.37-0.809,0.826c1.158,18.623,1.183,37.633,0,57.055c0,0.142,0.039,0.274,0.101,0.391
			c-0.062,0.117-0.101,0.249-0.101,0.391c0.067,1.071,0.128,2.143,0.187,3.216c-3.976-0.48-6.651,3.236-7.563,13.618
			c-0.951,10.817,1.311,23.487,1.311,23.487s3.691-4.268,6.933-9.414c-0.035,6.386-0.202,12.817-0.502,19.293
			c5.468-3.213,10.639-6.873,15.466-10.932c-0.341-13.089-0.059-26.178,0.847-39.267c0-0.142-0.039-0.274-0.101-0.391
			c0.062-0.117,0.101-0.249,0.101-0.391c-0.573-8.272-0.896-16.543-0.97-24.815c2.216,3.069,4.049,5.202,4.049,5.202
			s2.256-12.713,1.307-23.566c-0.647-7.409-2.185-11.432-4.445-12.966c0.02-0.303,0.038-0.606,0.059-0.909
			c0-0.456-0.362-0.826-0.809-0.826c0.447,0,0.809-0.37,0.809-0.826c-1.317-19.018-1.317-38.036,0-57.055
			c0-0.142-0.039-0.274-0.101-0.391c0.062-0.117,0.101-0.249,0.101-0.391c-0.365-5.269-0.628-10.538-0.79-15.807
			c-4.695-3.953-9.717-7.528-15.02-10.682C196.336,49.31,196.05,58.138,195.507,67.054z"/>
		<path class="st0" d="M216.985,123.29c-3.488,2.045-3.597,6.766,1.635,16.171c5.098,9.164,13.268,17.671,13.268,17.671
			s0.384-14.908-2.58-22.47C227.742,130.669,223.961,119.199,216.985,123.29z"/>
		<path class="st0" d="M187.719,184.143c-6.994-4.077-10.784,7.354-12.354,11.335c-2.971,7.536-2.586,22.394-2.586,22.394
			s8.19-8.479,13.301-17.612C191.325,190.886,191.216,186.182,187.719,184.143z"/>
		<path class="st0" d="M181.574,177.776c-4.494-5.825-11.56,2.852-14.231,5.792c-5.056,5.566-9.777,18.582-9.777,18.582
			s9.762-4.676,17.158-10.928C182.315,184.806,183.821,180.688,181.574,177.776z"/>
	</g>
	<path class="st1" d="M182.597,86.685c-8.198-8.518-17.848-16.507-29.077-23.919c-1.333-1.096-4.332-1.481-6.666-0.855
		c-0.358,0.082-0.712,0.167-1.07,0.249V30.276c1.963-0.468,3.927-0.924,5.895-1.355c3.338-1.192,6.349-6.673,6.689-12.179
		l0.413-6.674c0.341-5.506-2.112-9.036-5.45-7.843C121.533,9.352,95.471,17.809,79.484,28.6c-3.338,1.192-6.349,6.673-6.689,12.179
		l-0.413,6.674c-0.341,5.506,2.112,9.036,5.45,7.843c2.556-1.32,5.121-2.586,7.691-3.817v26.825
		c-0.533,0.165-1.073,0.326-1.605,0.492c-1.665,0.447-2.554,1.292-2.445,2.138l0.002,4.484c-0.069,0.439,0.126,0.891,0.623,1.3
		c1.541,1.612,3.161,3.203,4.822,4.782l-5.509,41.528c-0.223,1.683,1.233,3.214,3.236,3.402c0.556,0.052,1.093-0.013,1.59-0.158
		c1.34-0.267,2.454-1.151,2.756-2.353l8.37-33.337c3.993,3.188,8.248,6.306,12.776,9.351l-2.242,45.524
		c-0.083,1.692,1.496,3.134,3.51,3.204c0.559,0.019,1.089-0.077,1.573-0.251c1.315-0.344,2.353-1.292,2.555-2.508l7.558-45.636
		c6.454-1.515,12.828-3.074,19.097-4.689l2.365,13.364c0.215,1.215,1.264,2.154,2.582,2.488c0.486,0.17,1.017,0.262,1.576,0.239
		c2.013-0.086,3.576-1.54,3.474-3.232l-0.921-15.257c3.521-0.949,7.006-1.919,10.465-2.902l10.024,39.107
		c0.308,1.201,1.427,2.081,2.768,2.343c0.498,0.143,1.035,0.207,1.591,0.153c2.002-0.195,3.451-1.731,3.219-3.413l-5.737-41.655
		c2.408-0.727,4.803-1.461,7.18-2.205c2.334-0.626,3.281-2.2,3.281-3.568c0-0.629,0-1.369,0-1.369S183.903,87.76,182.597,86.685z
		 M98.553,45.629c11.282-4.736,22.687-8.696,34.202-11.962v31.584c-11.637,2.852-23.041,5.896-34.202,9.14V45.629z"/>
	<g>
		<g>
			<path class="st2" d="M23.707,167.371c4.677,17.975,9.827,35.746,15.43,53.451c2.34,7.221,4.296,12.07,5.818,14.637
				c1.089,1.836,2.179,2.793,3.233,2.89c0.111,1.197,0.167,1.795,0.278,2.992c-7.584-0.626-11.371-0.975-18.931-1.747
				c-0.08-1.268-0.12-1.902-0.2-3.17c1.167-0.209,1.894-0.719,2.182-1.529c0.288-0.81,0.387-1.836,0.302-3.082
				c-0.164-2.378-1.293-6.932-3.29-13.832c-3.445-11.868-6.61-23.818-9.457-35.843c-0.396,1.319-0.596,1.981-0.999,3.312
				c0.447,10.89,0.894,21.78,1.341,32.669c0.256,6.24,0.519,10.141,0.792,11.699c0.273,1.56,0.732,2.922,1.379,4.08
				c0.648,1.16,1.638,1.815,2.966,1.972c0.067,1.288,0.101,1.932,0.168,3.219c-7.318-0.783-10.971-1.208-18.262-2.126
				c0-1.368,0-2.052,0-3.42c0.474,0.066,0.711,0.099,1.186,0.164c1.037,0.143,1.858-0.421,2.483-1.576
				c0.422-0.78,0.76-2.208,0.982-4.218c0.157-1.417,0.199-5.226,0.098-11.405c-0.44-27.022-0.88-54.043-1.321-81.065
				c-0.103-6.3-0.233-10.285-0.385-11.961c-0.152-1.674-0.429-3.257-0.819-4.754c-0.39-1.497-0.893-2.519-1.506-3.059
				c-0.29-0.256-0.434-0.384-0.719-0.642c0-1.368,0-2.052,0-3.42c4.194,3.946,6.6,5.83,11.927,9.367
				c0.067,1.289,0.1,1.933,0.166,3.222c-0.916-0.59-1.564-0.452-1.981,0.398c-0.292,0.595-0.499,1.806-0.618,3.614
				c-0.09,1.365-0.018,5.088,0.231,11.149c0.51,12.42,1.019,24.84,1.529,37.261c3.128-10.122,6.223-20.253,9.313-30.386
				c1.242-4.056,1.747-7.461,1.529-10.311c-0.162-2.123-0.616-3.96-1.344-5.53c-0.372-0.788-1.209-1.61-2.472-2.481
				c-0.087-1.256-0.13-1.884-0.216-3.141c4.536,2.615,6.965,3.853,12.095,6.166c0.109,1.203,0.164,1.805,0.274,3.008
				c-1.127-0.234-1.953,0.055-2.498,0.882c-0.545,0.829-1.689,3.927-3.434,9.467C28.102,153.24,26.689,157.84,23.707,167.371z"/>
			<path class="st2" d="M67.78,213.494c-5.24-0.665-7.832-1.032-12.951-1.829c-0.193,4.065-0.289,6.105-0.484,10.202
				c-0.153,3.416-0.118,6.271,0.106,8.542c0.298,3.012,0.928,5.273,1.893,6.767c0.567,0.885,1.821,1.617,3.765,2.181
				c0.117,1.158,0.176,1.737,0.293,2.895c-4.854-0.341-7.279-0.526-12.124-0.927c-0.111-1.197-0.167-1.796-0.278-2.994
				c1.249-0.473,2.167-2.001,2.752-4.562c0.584-2.56,1.091-7.905,1.509-15.943c1.434-27.141,2.872-54.279,4.554-81.406
				c0.212,0.066,0.318,0.099,0.531,0.164c7.267,28.907,14.713,57.768,22.084,86.649c2.035,7.96,3.535,12.934,4.537,15.002
				c0.757,1.565,1.705,2.494,2.847,2.792c0.098,1.09,0.146,1.636,0.244,2.726c-7.084-0.302-10.623-0.486-17.692-0.916
				c-0.115-1.132-0.173-1.698-0.288-2.83c0.291,0.02,0.437,0.029,0.728,0.049c1.42,0.095,2.363-0.399,2.828-1.473
				c0.315-0.781,0.397-1.929,0.245-3.444c-0.091-0.909-0.239-1.846-0.445-2.815c-0.082-0.457-0.544-2.371-1.389-5.759
				C69.745,221.363,69.091,218.749,67.78,213.494z M66.275,207.721c-3.096-12.32-6.167-24.646-9.191-36.984
				c-0.664,11.751-1.291,23.504-1.905,35.258C59.565,206.738,61.786,207.084,66.275,207.721z"/>
			<path class="st2" d="M125.291,146.383c0.07,11.286,0.14,22.571,0.21,33.857c-0.476-0.004-0.714-0.006-1.19-0.011
				c-1.52-9.272-3.845-16.346-6.946-21.282c-3.101-4.936-6.495-7.534-10.018-7.8c-3.368-0.255-6.033,1.507-7.955,5.375
				c-1.922,3.868-3.044,9.423-3.409,16.688c-0.365,7.265-0.249,14.789,0.294,22.54c0.658,9.389,1.686,17.661,3.034,24.776
				c1.347,7.115,3.061,12.357,5.139,15.718c2.078,3.362,4.368,5.057,6.931,5.107c0.89,0.017,1.793-0.216,2.713-0.698
				c0.919-0.482,1.857-1.189,2.818-2.123c-0.246-8.013-0.369-12.019-0.615-20.032c-0.116-3.788-0.299-6.242-0.55-7.362
				c-0.251-1.118-0.731-2.138-1.444-3.062c-0.713-0.922-1.557-1.403-2.525-1.441c-0.415-0.016-0.622-0.025-1.037-0.042
				c-0.045-1.055-0.068-1.582-0.113-2.637c7.85,0.34,11.859,0.417,19.84,0.368c-0.007,1.048-0.01,1.573-0.017,2.621
				c-1.505,0.246-2.556,0.728-3.144,1.459c-0.589,0.732-1.038,1.945-1.344,3.644c-0.173,0.897-0.248,3.092-0.226,6.586
				c0.05,7.99,0.074,11.985,0.124,19.975c-2.372,2.732-4.787,4.783-7.284,6.153c-2.498,1.37-5.08,2.039-7.788,1.995
				c-3.463-0.056-6.402-1.369-8.873-3.955c-2.471-2.586-4.758-5.988-6.868-10.215c-2.11-4.227-3.914-8.999-5.371-14.288
				c-1.877-6.814-3.16-14.491-3.91-22.808c-1.103-12.222-0.96-25.309,3.374-36.886c3.573-9.544,9.233-13.819,16.511-13.208
				c2.255,0.189,4.335,0.748,6.179,1.581c0.989,0.447,2.658,1.61,4.935,3.475c2.277,1.865,3.611,2.781,4.02,2.791
				c0.635,0.016,1.219-0.454,1.755-1.412c0.536-0.957,1.02-2.779,1.46-5.464C124.517,146.375,124.775,146.378,125.291,146.383z"/>
			<path class="st2" d="M133.223,148.542c9.672-0.184,14.415-0.494,23.596-1.491c-0.063,1.062-0.095,1.593-0.158,2.655
				c-0.457,0.049-0.686,0.073-1.144,0.119c-1.724,0.176-2.94,0.676-3.627,1.519c-0.688,0.843-1.203,1.965-1.543,3.366
				c-0.341,1.403-0.641,4.863-0.903,10.382c-0.751,15.799-1.503,31.598-2.254,47.397c-0.412,8.662-0.423,14.386-0.048,17.179
				c0.375,2.794,1.093,5.103,2.148,6.931c1.054,1.828,2.445,2.721,4.194,2.665c2.004-0.064,3.788-1.313,5.383-3.764
				c1.594-2.451,2.918-5.81,3.967-10.074c1.048-4.263,2.006-11.653,2.85-22.146c1.081-13.432,2.162-26.864,3.244-40.296
				c0.356-4.419,0.414-7.548,0.171-9.381c-0.244-1.832-0.643-3.064-1.196-3.699c-0.859-0.971-2.159-1.326-3.907-1.089
				c0.077-1.07,0.115-1.605,0.192-2.675c6.025-0.834,8.973-1.338,14.706-2.5c-0.099,1.092-0.148,1.638-0.247,2.73
				c-0.341,0.068-0.512,0.102-0.854,0.168c-1.161,0.226-2.187,0.973-3.064,2.237c-0.878,1.266-1.576,3.067-2.126,5.348
				c-0.385,1.598-0.766,4.43-1.106,8.476c-1.053,12.555-2.106,25.11-3.159,37.665c-0.978,11.654-1.982,20.092-2.992,25.29
				c-1.011,5.2-2.812,10.023-5.354,14.413c-2.542,4.39-5.668,6.605-9.453,6.686c-3.158,0.067-5.536-1.018-7.179-3.218
				c-2.24-2.998-3.813-6.857-4.683-11.575c-0.87-4.716-1.233-11.07-1.031-19.066c0.396-15.708,0.791-31.416,1.187-47.123
				c0.139-5.535,0.081-8.971-0.177-10.308c-0.259-1.337-0.741-2.394-1.45-3.173c-0.708-0.779-2.044-1.113-4.014-1.029
				C133.204,150.115,133.21,149.591,133.223,148.542z"/>
			<path class="st2" d="M219.941,130.686c-0.109,1.205-0.163,1.808-0.272,3.013c-1.125,0.969-2.068,2.383-2.813,4.244
				c-1.037,2.603-2.926,9.305-5.746,19.861c-3.764,13.609-7.641,27.18-11.616,40.729c-1.039,10.252-1.559,15.378-2.598,25.63
				c-0.554,5.469-0.801,8.858-0.738,10.17c0.062,1.311,0.334,2.451,0.814,3.422c0.479,0.971,1.204,1.422,2.171,1.343
				c0.817-0.067,1.225-0.1,2.042-0.169c-0.116,1.175-0.174,1.762-0.289,2.936c-8.184,0.619-12.282,0.886-20.489,1.333
				c0.111-1.116,0.167-1.674,0.278-2.79c0.767-0.046,1.151-0.07,1.918-0.118c1.08-0.068,1.981-0.692,2.727-1.764
				c0.514-0.738,1.03-1.996,1.48-3.744c0.318-1.235,0.749-4.457,1.278-9.654c0.847-8.316,1.27-12.475,2.116-20.791
				c-1.415-14.125-2.924-28.233-4.561-42.334c-0.995-8.211-1.848-12.936-2.48-14.282c-0.632-1.344-1.6-1.896-2.907-1.675
				c0.101-1.095,0.151-1.643,0.252-2.738c7.896-1.66,11.7-2.646,18.93-4.882c-0.116,1.138-0.174,1.707-0.291,2.845
				c-0.322,0.098-0.484,0.146-0.807,0.243c-1.098,0.327-1.918,0.984-2.448,1.973c-0.53,0.991-0.845,1.966-0.943,2.931
				c-0.186,1.829,0.107,6.212,0.836,13.241c1.092,11.052,2.141,22.106,3.156,33.165c3.326-11.232,6.573-22.488,9.713-33.774
				c2.366-8.422,3.649-14.027,3.902-16.634c0.14-1.437,0.017-2.557-0.316-3.337c-0.461-1.081-1.441-1.487-3.001-1.171
				c0.117-1.168,0.175-1.752,0.291-2.92C213.859,133.369,215.946,132.506,219.941,130.686z"/>
			<path class="st2" d="M235.009,205.038c-4.718,1.124-7.119,1.659-11.994,2.67c-0.911,4.562-1.372,6.831-2.305,11.349
				c-0.769,3.764-1.254,6.831-1.441,9.224c-0.249,3.174-0.027,5.462,0.674,6.88c0.411,0.841,1.541,1.386,3.392,1.633
				c-0.088,1.255-0.131,1.882-0.219,3.136c-4.832,0.476-7.251,0.7-12.093,1.117c0.108-1.209,0.161-1.814,0.269-3.023
				c1.355-0.723,2.569-2.485,3.632-5.302c1.063-2.818,2.561-8.574,4.441-17.389c6.721-31.925,12.612-63.954,17.509-96.21
				c0.151-0.1,0.226-0.151,0.376-0.251c1.657,31.436,3.962,62.79,7.108,94.112c0.982,9.305,1.92,15.223,2.681,17.61
				c0.576,1.806,1.414,2.795,2.503,2.951c0,1.368,0,2.052,0,3.42c-6.993,0.88-10.496,1.289-17.513,2.046
				c0.065-1.291,0.098-1.936,0.163-3.227c0.287-0.034,0.43-0.051,0.717-0.086c1.397-0.168,2.408-0.931,3.024-2.3
				c0.425-0.991,0.671-2.376,0.741-4.145c0.042-1.061,0.033-2.144-0.026-3.248c-0.014-0.525-0.187-2.698-0.498-6.491
				C235.668,213.688,235.44,210.793,235.009,205.038z M234.489,198.772c-0.948-12.936-1.767-25.882-2.478-38.833
				c-2.41,13.808-4.913,27.594-7.653,41.342C228.478,200.322,230.506,199.819,234.489,198.772z"/>
		</g>
	</g>
</g>
</svg>
